<svg width="197" height="82" viewBox="0 0 197 82" fill="none" xmlns="http://www.w3.org/2000/svg">
<path d="M117.43 0.611923C135.35 3.46984 150.7 14.6597 162.879 27.688C174.497 40.1162 179.07 56.3699 184.442 72.2974C190.261 89.5491 200.875 107.142 195.547 124.541C190.178 142.076 171.695 151.852 156.677 162.968C141.855 173.939 127.329 187.05 108.749 188.788C90.1646 190.526 72.7891 181.284 56.5741 172.332C40.9286 163.695 26.8816 152.828 17.107 138.194C6.98889 123.046 -1.05473 105.8 0.112894 87.8027C1.27295 69.9216 11.5207 53.9271 23.4626 40.2289C34.7441 27.2882 49.9464 19.0002 65.9909 12.2358C82.4656 5.29002 99.6974 -2.21621 117.43 0.611923Z" fill="#2441E7" fill-opacity="0.5"/>
</svg>
