<svg width="214" height="263" viewBox="0 0 214 263" fill="none" xmlns="http://www.w3.org/2000/svg">
<path d="M36.4287 112.705C19.0168 83.0773 -1.39871 50.0053 0.936701 18.8413C3.28227 -12.4581 29.3267 -27.6207 48.3646 -46.5685C66.7235 -64.8403 84.4109 -84.5696 109.898 -89.6043C136.584 -94.8756 166.868 -92.3927 194.236 -75.3835C221.108 -58.6829 241.09 -28.5083 256.976 1.80277C271.458 29.4355 276.267 59.078 280.219 88.6749C284.142 118.058 286.007 146.697 279.83 172.983C272.779 202.993 265.046 235.3 242.302 250.036C218.963 265.159 186.237 267.245 156.957 252.597C129.044 238.633 115.116 201.097 92.8715 175.278C74.0954 153.485 51.2196 137.874 36.4287 112.705Z" fill="#2441E7" fill-opacity="0.5"/>
</svg>
