<svg width="187" height="33" viewBox="0 0 187 33" fill="none" xmlns="http://www.w3.org/2000/svg">
<g id="LevelMind">
<mask id="path-1-outside-1_5_50" maskUnits="userSpaceOnUse" x="0" y="0" width="187" height="33" fill="black">
<rect fill="white" width="187" height="33"/>
<path d="M9.689 24.8938H17.1009V30.7125H2V6.19085H9.689V24.8938ZM38.4313 20.7722C38.4313 21.3033 38.3966 21.8113 38.3274 22.2962H25.9626C26.0781 23.9818 26.7823 24.8245 28.0754 24.8245C28.9066 24.8245 29.507 24.4436 29.8764 23.6816H38.0157C37.7386 25.067 37.1498 26.3139 36.2493 27.4222C35.3718 28.5074 34.252 29.3733 32.8897 30.0198C31.5504 30.6432 30.0727 30.955 28.4564 30.955C26.5168 30.955 24.785 30.5509 23.2611 29.7427C21.7602 28.9346 20.5826 27.7801 19.7283 26.2792C18.8971 24.7553 18.4814 22.9773 18.4814 20.9454C18.4814 18.9135 18.8971 17.1471 19.7283 15.6462C20.5826 14.1223 21.7602 12.9562 23.2611 12.1481C24.785 11.3399 26.5168 10.9359 28.4564 10.9359C30.3959 10.9359 32.1161 11.3399 33.617 12.1481C35.1409 12.9332 36.3185 14.0646 37.1498 15.5423C38.0041 17.0201 38.4313 18.7634 38.4313 20.7722ZM30.6384 18.9366C30.6384 18.2901 30.4306 17.8052 30.0149 17.4819C29.5993 17.1355 29.0798 16.9624 28.4564 16.9624C27.094 16.9624 26.2974 17.6204 26.0665 18.9366H30.6384ZM50.7687 23.4045L53.8858 11.1783H62.0597L55.5483 30.7125H45.9544L39.443 11.1783H47.6169L50.7687 23.4045ZM83.0105 20.7722C83.0105 21.3033 82.9758 21.8113 82.9065 22.2962H70.5418C70.6573 23.9818 71.3615 24.8245 72.6546 24.8245C73.4858 24.8245 74.0861 24.4436 74.4556 23.6816H82.5948C82.3177 25.067 81.729 26.3139 80.8284 27.4222C79.951 28.5074 78.8311 29.3733 77.4688 30.0198C76.1296 30.6432 74.6518 30.955 73.0355 30.955C71.096 30.955 69.3642 30.5509 67.8403 29.7427C66.3394 28.9346 65.1618 27.7801 64.3075 26.2792C63.4762 24.7553 63.0606 22.9773 63.0606 20.9454C63.0606 18.9135 63.4762 17.1471 64.3075 15.6462C65.1618 14.1223 66.3394 12.9562 67.8403 12.1481C69.3642 11.3399 71.096 10.9359 73.0355 10.9359C74.9751 10.9359 76.6953 11.3399 78.1962 12.1481C79.7201 12.9332 80.8977 14.0646 81.729 15.5423C82.5833 17.0201 83.0105 18.7634 83.0105 20.7722ZM75.2176 18.9366C75.2176 18.2901 75.0097 17.8052 74.5941 17.4819C74.1785 17.1355 73.659 16.9624 73.0355 16.9624C71.6732 16.9624 70.8766 17.6204 70.6457 18.9366H75.2176ZM93.1312 5.08253V30.7125H85.4422V5.08253H93.1312ZM126.078 6.19085V30.7125H118.424V18.4863L114.649 30.7125H108.068L104.293 18.4863V30.7125H96.6039V6.19085H106.025L111.428 20.9108L116.692 6.19085H126.078ZM133.427 9.61973C132.088 9.61973 131.014 9.26183 130.206 8.54604C129.398 7.83025 128.994 6.92973 128.994 5.8445C128.994 4.73617 129.398 3.82412 130.206 3.10832C131.014 2.36944 132.088 2 133.427 2C134.743 2 135.805 2.36944 136.613 3.10832C137.422 3.82412 137.826 4.73617 137.826 5.8445C137.826 6.92973 137.422 7.83025 136.613 8.54604C135.805 9.26183 134.743 9.61973 133.427 9.61973ZM137.237 11.1783V30.7125H129.548V11.1783H137.237ZM154.39 11.0398C156.63 11.0398 158.373 11.7902 159.62 13.291C160.89 14.7919 161.525 16.8238 161.525 19.3868V30.7125H153.871V20.3566C153.871 19.433 153.617 18.7057 153.109 18.1746C152.624 17.6204 151.966 17.3434 151.135 17.3434C150.28 17.3434 149.611 17.6204 149.126 18.1746C148.641 18.7057 148.399 19.433 148.399 20.3566V30.7125H140.71V11.1783H148.399V14.1569C148.999 13.2333 149.796 12.4829 150.788 11.9056C151.804 11.3284 153.005 11.0398 154.39 11.0398ZM163.82 20.9454C163.82 18.8904 164.167 17.1125 164.859 15.6116C165.575 14.0877 166.545 12.9332 167.769 12.1481C168.993 11.3399 170.366 10.9359 171.89 10.9359C173.16 10.9359 174.246 11.2014 175.146 11.7325C176.07 12.2404 176.774 12.9447 177.259 13.8452V5.08253H184.948V30.7125H177.259V28.0456C176.774 28.9461 176.07 29.6619 175.146 30.193C174.246 30.701 173.16 30.955 171.89 30.955C170.366 30.955 168.993 30.5624 167.769 29.7774C166.545 28.9692 165.575 27.8147 164.859 26.3139C164.167 24.7899 163.82 23.0004 163.82 20.9454ZM177.293 20.9454C177.293 19.9064 177.028 19.0982 176.497 18.521C175.966 17.9437 175.285 17.6551 174.453 17.6551C173.622 17.6551 172.941 17.9437 172.41 18.521C171.879 19.0982 171.613 19.9064 171.613 20.9454C171.613 21.9845 171.879 22.7926 172.41 23.3699C172.941 23.9471 173.622 24.2357 174.453 24.2357C175.285 24.2357 175.966 23.9471 176.497 23.3699C177.028 22.7926 177.293 21.9845 177.293 20.9454Z"/>
</mask>
<path d="M9.689 24.8938H17.1009V30.7125H2V6.19085H9.689V24.8938ZM38.4313 20.7722C38.4313 21.3033 38.3966 21.8113 38.3274 22.2962H25.9626C26.0781 23.9818 26.7823 24.8245 28.0754 24.8245C28.9066 24.8245 29.507 24.4436 29.8764 23.6816H38.0157C37.7386 25.067 37.1498 26.3139 36.2493 27.4222C35.3718 28.5074 34.252 29.3733 32.8897 30.0198C31.5504 30.6432 30.0727 30.955 28.4564 30.955C26.5168 30.955 24.785 30.5509 23.2611 29.7427C21.7602 28.9346 20.5826 27.7801 19.7283 26.2792C18.8971 24.7553 18.4814 22.9773 18.4814 20.9454C18.4814 18.9135 18.8971 17.1471 19.7283 15.6462C20.5826 14.1223 21.7602 12.9562 23.2611 12.1481C24.785 11.3399 26.5168 10.9359 28.4564 10.9359C30.3959 10.9359 32.1161 11.3399 33.617 12.1481C35.1409 12.9332 36.3185 14.0646 37.1498 15.5423C38.0041 17.0201 38.4313 18.7634 38.4313 20.7722ZM30.6384 18.9366C30.6384 18.2901 30.4306 17.8052 30.0149 17.4819C29.5993 17.1355 29.0798 16.9624 28.4564 16.9624C27.094 16.9624 26.2974 17.6204 26.0665 18.9366H30.6384ZM50.7687 23.4045L53.8858 11.1783H62.0597L55.5483 30.7125H45.9544L39.443 11.1783H47.6169L50.7687 23.4045ZM83.0105 20.7722C83.0105 21.3033 82.9758 21.8113 82.9065 22.2962H70.5418C70.6573 23.9818 71.3615 24.8245 72.6546 24.8245C73.4858 24.8245 74.0861 24.4436 74.4556 23.6816H82.5948C82.3177 25.067 81.729 26.3139 80.8284 27.4222C79.951 28.5074 78.8311 29.3733 77.4688 30.0198C76.1296 30.6432 74.6518 30.955 73.0355 30.955C71.096 30.955 69.3642 30.5509 67.8403 29.7427C66.3394 28.9346 65.1618 27.7801 64.3075 26.2792C63.4762 24.7553 63.0606 22.9773 63.0606 20.9454C63.0606 18.9135 63.4762 17.1471 64.3075 15.6462C65.1618 14.1223 66.3394 12.9562 67.8403 12.1481C69.3642 11.3399 71.096 10.9359 73.0355 10.9359C74.9751 10.9359 76.6953 11.3399 78.1962 12.1481C79.7201 12.9332 80.8977 14.0646 81.729 15.5423C82.5833 17.0201 83.0105 18.7634 83.0105 20.7722ZM75.2176 18.9366C75.2176 18.2901 75.0097 17.8052 74.5941 17.4819C74.1785 17.1355 73.659 16.9624 73.0355 16.9624C71.6732 16.9624 70.8766 17.6204 70.6457 18.9366H75.2176ZM93.1312 5.08253V30.7125H85.4422V5.08253H93.1312ZM126.078 6.19085V30.7125H118.424V18.4863L114.649 30.7125H108.068L104.293 18.4863V30.7125H96.6039V6.19085H106.025L111.428 20.9108L116.692 6.19085H126.078ZM133.427 9.61973C132.088 9.61973 131.014 9.26183 130.206 8.54604C129.398 7.83025 128.994 6.92973 128.994 5.8445C128.994 4.73617 129.398 3.82412 130.206 3.10832C131.014 2.36944 132.088 2 133.427 2C134.743 2 135.805 2.36944 136.613 3.10832C137.422 3.82412 137.826 4.73617 137.826 5.8445C137.826 6.92973 137.422 7.83025 136.613 8.54604C135.805 9.26183 134.743 9.61973 133.427 9.61973ZM137.237 11.1783V30.7125H129.548V11.1783H137.237ZM154.39 11.0398C156.63 11.0398 158.373 11.7902 159.62 13.291C160.89 14.7919 161.525 16.8238 161.525 19.3868V30.7125H153.871V20.3566C153.871 19.433 153.617 18.7057 153.109 18.1746C152.624 17.6204 151.966 17.3434 151.135 17.3434C150.28 17.3434 149.611 17.6204 149.126 18.1746C148.641 18.7057 148.399 19.433 148.399 20.3566V30.7125H140.71V11.1783H148.399V14.1569C148.999 13.2333 149.796 12.4829 150.788 11.9056C151.804 11.3284 153.005 11.0398 154.39 11.0398ZM163.82 20.9454C163.82 18.8904 164.167 17.1125 164.859 15.6116C165.575 14.0877 166.545 12.9332 167.769 12.1481C168.993 11.3399 170.366 10.9359 171.89 10.9359C173.16 10.9359 174.246 11.2014 175.146 11.7325C176.07 12.2404 176.774 12.9447 177.259 13.8452V5.08253H184.948V30.7125H177.259V28.0456C176.774 28.9461 176.07 29.6619 175.146 30.193C174.246 30.701 173.16 30.955 171.89 30.955C170.366 30.955 168.993 30.5624 167.769 29.7774C166.545 28.9692 165.575 27.8147 164.859 26.3139C164.167 24.7899 163.82 23.0004 163.82 20.9454ZM177.293 20.9454C177.293 19.9064 177.028 19.0982 176.497 18.521C175.966 17.9437 175.285 17.6551 174.453 17.6551C173.622 17.6551 172.941 17.9437 172.41 18.521C171.879 19.0982 171.613 19.9064 171.613 20.9454C171.613 21.9845 171.879 22.7926 172.41 23.3699C172.941 23.9471 173.622 24.2357 174.453 24.2357C175.285 24.2357 175.966 23.9471 176.497 23.3699C177.028 22.7926 177.293 21.9845 177.293 20.9454Z" stroke="white" stroke-width="4" mask="url(#path-1-outside-1_5_50)"/>
</g>
</svg>
