<svg width="235" height="307" viewBox="0 0 235 307" fill="none" xmlns="http://www.w3.org/2000/svg">
<path d="M127.734 -63.0816C164.768 -76.5725 184.571 -133.651 226.014 -121.844C267.73 -109.96 275.271 -46.3818 306.359 -12.1919C334.15 18.3721 378.528 30.424 397.569 66.8278C417.825 105.556 423.974 151.964 411.492 188.812C399.292 224.826 361.884 239.625 332.003 260.385C304.115 279.76 278.376 304.386 242.725 306.061C206.875 307.745 167.906 294.369 136.624 269.562C107.381 246.371 98.1115 207.569 78.2322 175.613C58.4041 143.74 30.6635 117.034 19.9141 81.9505C6.94366 39.6183 -12.057 -12.4249 11.0816 -43.5496C34.5255 -75.0848 90.6657 -49.5786 127.734 -63.0816Z" fill="#2441E7" fill-opacity="0.4"/>
</svg>
